<?xml version="1.0" encoding="UTF-8"?>
<svg version="1.1" xmlns="http://www.w3.org/2000/svg" width="500" height="500">
<path d="M0 0 C0.75361816 0.17660156 1.50723633 0.35320312 2.28369141 0.53515625 C20.91777321 5.05656904 38.65178063 13.09490238 55 23 C55.91007812 23.52980469 56.82015625 24.05960938 57.7578125 24.60546875 C59.54756357 25.66871808 61.28454578 26.82062523 63 28 C63 28.66 63 29.32 63 30 C63.72574219 30.2578125 64.45148438 30.515625 65.19921875 30.78125 C68.12047667 32.05242499 70.30872649 33.54016402 72.8125 35.5 C73.60269531 36.1084375 74.39289063 36.716875 75.20703125 37.34375 C75.79871094 37.8903125 76.39039063 38.436875 77 39 C77 39.66 77 40.32 77 41 C77.5887793 41.26425781 78.17755859 41.52851563 78.78417969 41.80078125 C81.08072584 43.04368944 82.60833166 44.35006481 84.453125 46.1875 C85.071875 46.80367187 85.690625 47.41984375 86.328125 48.0546875 C86.96234375 48.69664062 87.5965625 49.33859375 88.25 50 C88.8996875 50.64195312 89.549375 51.28390625 90.21875 51.9453125 C90.83234375 52.56148437 91.4459375 53.17765625 92.078125 53.8125 C92.63918945 54.37582031 93.20025391 54.93914062 93.77832031 55.51953125 C95 57 95 57 95 59 C95.66 59 96.32 59 97 59 C117.75206694 81.04596081 131.89254572 111.6181929 138 141 C138.16226074 141.7537793 138.32452148 142.50755859 138.49169922 143.28417969 C145.002788 174.95938354 141.85553762 208.47882564 132 239 C131.77473633 239.70576172 131.54947266 240.41152344 131.31738281 241.13867188 C125.34098253 259.45200608 115.67174748 276.0795978 104.15405273 291.43212891 C103.05719076 292.92230187 102.0263785 294.46043225 101 296 C100.34 296 99.68 296 99 296 C98.7421875 296.57234375 98.484375 297.1446875 98.21875 297.734375 C96.88634058 300.21128995 95.34943882 302.1341166 93.5 304.25 C92.8915625 304.95640625 92.283125 305.6628125 91.65625 306.390625 C90 308 90 308 88 308 C88 308.66 88 309.32 88 310 C87.34 310 86.68 310 86 310 C85.70609375 310.81017578 85.70609375 310.81017578 85.40625 311.63671875 C83.36736625 315.06317615 80.53915642 317.27393875 77.5 319.8125 C76.86634521 320.34657471 76.23269043 320.88064941 75.57983398 321.4309082 C38.68568089 352.21264176 -9.21956472 367.27609153 -57.04345703 363.77734375 C-90.04237727 360.78079911 -121.12443282 350.20129848 -148.31201172 331.17529297 C-149.91577502 330.0586432 -151.53755178 328.96799677 -153.16015625 327.87890625 C-154.07667969 327.25886719 -154.99320312 326.63882812 -155.9375 326 C-156.73027344 325.46375 -157.52304688 324.9275 -158.33984375 324.375 C-159.16162109 323.694375 -159.16162109 323.694375 -160 323 C-160 322.34 -160 321.68 -160 321 C-160.8971875 320.566875 -160.8971875 320.566875 -161.8125 320.125 C-164 319 -164 319 -167 317 C-167 316.34 -167 315.68 -167 315 C-167.56589844 314.75765625 -168.13179687 314.5153125 -168.71484375 314.265625 C-176.18073913 310.13066756 -181.88908242 302.11900626 -187.125 295.5 C-187.8531189 294.58299316 -187.8531189 294.58299316 -188.59594727 293.64746094 C-192 289.25489642 -192 289.25489642 -192 287 C-192.66 287 -193.32 287 -194 287 C-195.2175293 285.38623047 -195.2175293 285.38623047 -196.57421875 283.1171875 C-197.07348877 282.28703125 -197.57275879 281.456875 -198.0871582 280.6015625 C-198.87932739 279.25191406 -198.87932739 279.25191406 -199.6875 277.875 C-200.22914795 276.9571875 -200.7707959 276.039375 -201.32885742 275.09375 C-211.19079906 258.24067278 -218.22705492 241.12110009 -222.8125 222.125 C-223.00730957 221.31861084 -223.20211914 220.51222168 -223.40283203 219.68139648 C-226.43758851 206.41001871 -227.37700218 193.43218561 -227.3125 179.875 C-227.31034485 179.05918457 -227.3081897 178.24336914 -227.30596924 177.40283203 C-227.22054249 157.23619331 -224.21508886 139.20886126 -218 120 C-217.65412842 118.92540527 -217.65412842 118.92540527 -217.30126953 117.82910156 C-208.37030622 90.73137844 -191.82002274 67.79067603 -171.9375 47.6875 C-171.28168945 47.02226318 -170.62587891 46.35702637 -169.95019531 45.67163086 C-169.3362793 45.06198486 -168.72236328 44.45233887 -168.08984375 43.82421875 C-167.54191162 43.27854248 -166.99397949 42.73286621 -166.42944336 42.1706543 C-165 41 -165 41 -163 41 C-163 40.34 -163 39.68 -163 39 C-161.07412421 37.36860063 -159.15673283 35.86276775 -157.125 34.375 C-156.56941406 33.95476562 -156.01382813 33.53453125 -155.44140625 33.1015625 C-151.26235288 30 -151.26235288 30 -149 30 C-149 29.34 -149 28.68 -149 28 C-146.86099456 26.51867727 -144.74294838 25.18324841 -142.5 23.875 C-141.48220459 23.27667358 -141.48220459 23.27667358 -140.44384766 22.66625977 C-129.70344502 16.43168942 -118.7858523 11.14229825 -107.1875 6.6875 C-106.3404248 6.36193115 -105.49334961 6.0363623 -104.62060547 5.70092773 C-72.01297427 -6.47549987 -33.80397854 -8.13288311 0 0 Z " fill="#FE914D" transform="translate(293,96)"/>
<path d="M0 0 C0.75361816 0.17660156 1.50723633 0.35320312 2.28369141 0.53515625 C20.91777321 5.05656904 38.65178063 13.09490238 55 23 C55.91007812 23.52980469 56.82015625 24.05960938 57.7578125 24.60546875 C59.54756357 25.66871808 61.28454578 26.82062523 63 28 C63 28.66 63 29.32 63 30 C63.72574219 30.2578125 64.45148438 30.515625 65.19921875 30.78125 C68.12047667 32.05242499 70.30872649 33.54016402 72.8125 35.5 C73.60269531 36.1084375 74.39289063 36.716875 75.20703125 37.34375 C75.79871094 37.8903125 76.39039063 38.436875 77 39 C77 39.66 77 40.32 77 41 C77.5887793 41.26425781 78.17755859 41.52851563 78.78417969 41.80078125 C81.08072584 43.04368944 82.60833166 44.35006481 84.453125 46.1875 C85.071875 46.80367187 85.690625 47.41984375 86.328125 48.0546875 C86.96234375 48.69664062 87.5965625 49.33859375 88.25 50 C88.8996875 50.64195312 89.549375 51.28390625 90.21875 51.9453125 C90.83234375 52.56148437 91.4459375 53.17765625 92.078125 53.8125 C92.63918945 54.37582031 93.20025391 54.93914062 93.77832031 55.51953125 C95 57 95 57 95 59 C95.66 59 96.32 59 97 59 C117.75206694 81.04596081 131.89254572 111.6181929 138 141 C138.16226074 141.7537793 138.32452148 142.50755859 138.49169922 143.28417969 C145.002788 174.95938354 141.85553762 208.47882564 132 239 C131.77473633 239.70576172 131.54947266 240.41152344 131.31738281 241.13867188 C125.34098253 259.45200608 115.67174748 276.0795978 104.15405273 291.43212891 C103.05719076 292.92230187 102.0263785 294.46043225 101 296 C100.34 296 99.68 296 99 296 C98.7421875 296.57234375 98.484375 297.1446875 98.21875 297.734375 C96.88634058 300.21128995 95.34943882 302.1341166 93.5 304.25 C92.8915625 304.95640625 92.283125 305.6628125 91.65625 306.390625 C90 308 90 308 88 308 C88 308.66 88 309.32 88 310 C87.34 310 86.68 310 86 310 C85.70609375 310.81017578 85.70609375 310.81017578 85.40625 311.63671875 C83.36736625 315.06317615 80.53915642 317.27393875 77.5 319.8125 C76.86634521 320.34657471 76.23269043 320.88064941 75.57983398 321.4309082 C38.68568089 352.21264176 -9.21956472 367.27609153 -57.04345703 363.77734375 C-90.04237727 360.78079911 -121.12443282 350.20129848 -148.31201172 331.17529297 C-149.91577502 330.0586432 -151.53755178 328.96799677 -153.16015625 327.87890625 C-154.07667969 327.25886719 -154.99320312 326.63882812 -155.9375 326 C-156.73027344 325.46375 -157.52304688 324.9275 -158.33984375 324.375 C-159.16162109 323.694375 -159.16162109 323.694375 -160 323 C-160 322.34 -160 321.68 -160 321 C-160.8971875 320.566875 -160.8971875 320.566875 -161.8125 320.125 C-164 319 -164 319 -167 317 C-167 316.34 -167 315.68 -167 315 C-167.56589844 314.75765625 -168.13179687 314.5153125 -168.71484375 314.265625 C-176.18073913 310.13066756 -181.88908242 302.11900626 -187.125 295.5 C-187.8531189 294.58299316 -187.8531189 294.58299316 -188.59594727 293.64746094 C-192 289.25489642 -192 289.25489642 -192 287 C-192.66 287 -193.32 287 -194 287 C-195.2175293 285.38623047 -195.2175293 285.38623047 -196.57421875 283.1171875 C-197.07348877 282.28703125 -197.57275879 281.456875 -198.0871582 280.6015625 C-198.87932739 279.25191406 -198.87932739 279.25191406 -199.6875 277.875 C-200.22914795 276.9571875 -200.7707959 276.039375 -201.32885742 275.09375 C-211.19079906 258.24067278 -218.22705492 241.12110009 -222.8125 222.125 C-223.00730957 221.31861084 -223.20211914 220.51222168 -223.40283203 219.68139648 C-226.43758851 206.41001871 -227.37700218 193.43218561 -227.3125 179.875 C-227.31034485 179.05918457 -227.3081897 178.24336914 -227.30596924 177.40283203 C-227.22054249 157.23619331 -224.21508886 139.20886126 -218 120 C-217.65412842 118.92540527 -217.65412842 118.92540527 -217.30126953 117.82910156 C-208.37030622 90.73137844 -191.82002274 67.79067603 -171.9375 47.6875 C-171.28168945 47.02226318 -170.62587891 46.35702637 -169.95019531 45.67163086 C-169.3362793 45.06198486 -168.72236328 44.45233887 -168.08984375 43.82421875 C-167.54191162 43.27854248 -166.99397949 42.73286621 -166.42944336 42.1706543 C-165 41 -165 41 -163 41 C-163 40.34 -163 39.68 -163 39 C-161.07412421 37.36860063 -159.15673283 35.86276775 -157.125 34.375 C-156.56941406 33.95476562 -156.01382813 33.53453125 -155.44140625 33.1015625 C-151.26235288 30 -151.26235288 30 -149 30 C-149 29.34 -149 28.68 -149 28 C-146.86099456 26.51867727 -144.74294838 25.18324841 -142.5 23.875 C-141.48220459 23.27667358 -141.48220459 23.27667358 -140.44384766 22.66625977 C-129.70344502 16.43168942 -118.7858523 11.14229825 -107.1875 6.6875 C-106.3404248 6.36193115 -105.49334961 6.0363623 -104.62060547 5.70092773 C-72.01297427 -6.47549987 -33.80397854 -8.13288311 0 0 Z M-166 54 C-171 59 -171 59 -172.56713867 60.5144043 C-188.58221588 76.14887138 -199.75651415 96.36863843 -208 117 C-208.38671875 117.93714844 -208.7734375 118.87429687 -209.171875 119.83984375 C-212.11967915 127.37941974 -213.85528193 135.20676976 -215.58154297 143.09667969 C-215.92834403 144.67407821 -216.29206253 146.24774642 -216.66015625 147.8203125 C-226.26743326 190.94631151 -214.85453057 238.10085549 -191.77783203 274.95166016 C-180.99345123 291.41294597 -167.45070769 305.88411939 -152 318 C-150.98035156 318.83273437 -149.96070313 319.66546875 -148.91015625 320.5234375 C-131.38418888 334.43223922 -110.44525815 343.9828785 -89 350 C-87.89011719 350.33257812 -86.78023437 350.66515625 -85.63671875 351.0078125 C-56.46521574 359.13951699 -19.53219754 357.66767529 9 348 C9.68143066 347.77892578 10.36286133 347.55785156 11.06494141 347.33007812 C40.16961705 337.81545991 64.50288035 321.59939557 86 300 C86.85980469 299.14019531 87.71960938 298.28039062 88.60546875 297.39453125 C115.31740612 269.16970539 132.08516006 227.80836681 132.953125 189.08447266 C132.98423484 187.70105693 133.02580904 186.31783476 133.078125 184.93505859 C134.7647459 140.03931845 119.20444975 97.5229986 89.625 63.875 C88.09556767 62.23847995 86.55262554 60.61453246 85 59 C84.50838379 58.47728516 84.01676758 57.95457031 83.51025391 57.41601562 C51.73029845 23.72484496 8.14277431 5.56867086 -38 4 C-38.88010742 3.96600098 -39.76021484 3.93200195 -40.66699219 3.89697266 C-85.83768634 2.34181244 -134.74960978 20.72620321 -166 54 Z " fill="#F6F2F0" transform="translate(293,96)"/>
<path d="M0 0 C1.0209375 0.804375 1.0209375 0.804375 2.0625 1.625 C2.701875 2.07875 3.34125 2.5325 4 3 C6.60470331 2.32481546 6.60470331 2.32481546 9 1 C13.76670501 -0.58890167 17.57358149 -0.57605363 22.25 1.3125 C24.55871858 2.72921367 26.25056432 3.9589917 28 6 C30.01478239 4.99712626 32.0216773 3.98844439 34.0078125 2.9296875 C39.66855016 0.10976283 44.69438859 -1.17785978 51 0 C55.90288722 2.05904386 60.56513635 5.23172535 63 10 C64.37737063 19.9227948 61.27077995 28.35826936 57.8125 37.4375 C57.32311965 38.76563247 56.8354813 40.09440815 56.34960938 41.42382812 C54.47069645 46.53694253 52.53841377 51.62709472 50.54956055 56.69848633 C49.87534058 58.41781372 49.87534058 58.41781372 49.1875 60.171875 C48.7853125 61.18217773 48.383125 62.19248047 47.96875 63.23339844 C46.69576986 66.86883467 46.22553147 70.16596495 46 74 C51.4563686 73.37929304 51.4563686 73.37929304 55.69140625 70.1796875 C57.25287075 67.83952921 58.64967716 65.46796294 60 63 C60.47695313 62.15566406 60.95390625 61.31132812 61.4453125 60.44140625 C62.31685904 58.88507315 63.17629744 57.32185331 64.01953125 55.75 C65 54 65 54 66 53 C70.03160191 52.73706944 71.55892734 52.70595156 75 55 C74.66978435 64.90646943 70.90202877 73.29089517 64.125 80.5625 C58.23852435 85.92499013 52.38005939 87.63614835 44.4609375 87.34375 C38.704725 86.53970762 35.156406 84.41659735 31.5 79.9375 C28.54895442 73.82026701 29.31114175 66.34991802 31.39282227 60.06689453 C32.0163978 58.41543986 32.6582402 56.77078882 33.31640625 55.1328125 C33.6517186 54.25019745 33.98703094 53.3675824 34.33250427 52.45822144 C35.39210937 49.67355981 36.47494652 46.89885335 37.5625 44.125 C38.65154677 41.32906564 39.7349464 38.53145438 40.8032074 35.72750854 C41.4649784 33.99196049 42.13885196 32.26096573 42.8263092 30.53543091 C45.04225911 24.87820282 45.04225911 24.87820282 44 19 C42.90645094 17.70475652 42.90645094 17.70475652 40.25 17.625 C36.86046682 18.01609998 35.42054181 18.61406197 33.19116211 21.19018555 C28.32921452 28.57727665 25.89487889 37.99236646 22.96875 46.27734375 C22.60761612 47.29778778 22.24648224 48.31823181 21.87440491 49.36959839 C20.36352682 53.64413131 18.85396974 57.91894178 17.36572266 62.20141602 C16.26717944 65.35645687 15.15076909 68.5046951 14.03125 71.65234375 C13.70088745 72.6169603 13.3705249 73.58157684 13.03015137 74.57542419 C11.13056506 79.86565627 9.49055385 83.51820027 5 87 C1.19701822 87.71305908 -0.49683186 87.25693692 -3.9375 85.5 C-6 83 -6 83 -5.88110352 79.54711914 C-5.01708463 74.0233495 -2.96643894 68.94144291 -0.96484375 63.74609375 C-0.14768209 61.57100275 0.66937196 59.39587132 1.48632812 57.22070312 C2.77557127 53.82035814 4.06860385 50.42149585 5.36450195 47.02368164 C6.61852378 43.7263685 7.85862449 40.42406309 9.09765625 37.12109375 C9.48824722 36.110504 9.8788382 35.09991425 10.28126526 34.05870056 C12.23900203 28.82558381 13.5985469 24.60154052 13 19 C11.83752049 17.61070346 11.83752049 17.61070346 8.625 17.875 C5.04677028 17.82699539 5.04677028 17.82699539 2 19 C0.91052418 21.16681924 0.91052418 21.16681924 0 24 C-0.48637939 25.22485107 -0.97275879 26.44970215 -1.47387695 27.71166992 C-4.65969994 35.79766248 -7.72411056 43.91353887 -10.60546875 52.11328125 C-10.90091583 52.95196747 -11.19636292 53.79065369 -11.50076294 54.65475464 C-12.70704914 58.0840663 -13.91078921 61.51415649 -15.10131836 64.94897461 C-15.98963751 67.50696295 -16.89028485 70.0603328 -17.79296875 72.61328125 C-18.05659714 73.38408524 -18.32022552 74.15488922 -18.59184265 74.9490509 C-20.31405484 79.78214089 -22.15130846 84.57565423 -27 87 C-30.54231061 87.38503376 -32.36257342 87.41935959 -35.375 85.4375 C-37.59156533 82.112652 -37.23654513 79.95600279 -37 76 C-36.19171143 72.87174988 -36.19171143 72.87174988 -35.04394531 69.67260742 C-34.40262665 67.85988594 -34.40262665 67.85988594 -33.74835205 66.01054382 C-33.27522861 64.70874831 -32.8018122 63.40705924 -32.328125 62.10546875 C-31.84355138 60.74969954 -31.35990435 59.39359884 -30.87713623 58.03718567 C-29.60623124 54.47498234 -28.32182656 50.91779009 -27.03479004 47.36138916 C-25.99456552 44.47993973 -24.96394212 41.59510396 -23.93385696 38.7100172 C-22.69349241 35.23651491 -21.44896174 31.76451164 -20.203125 28.29296875 C-19.97017982 27.64370108 -19.73723465 26.9944334 -19.49723053 26.32549095 C-17.32690834 20.2870837 -15.13581182 14.2563412 -12.82324219 8.27075195 C-12.37812286 7.11770317 -12.37812286 7.11770317 -11.92401123 5.94136047 C-9.40052058 0.63947145 -5.59592161 -0.83343513 0 0 Z " fill="#F6F4F2" transform="translate(236,191)"/>
<path d="M0 0 C2.9375 2 2.9375 2 5 5 C4.73651675 11.74676818 2.58702364 17.60049987 0.25390625 23.88671875 C-0.11726822 24.90675491 -0.48844269 25.92679108 -0.87086487 26.97773743 C-2.05188521 30.21726034 -3.24458479 33.45234093 -4.4375 36.6875 C-5.23578076 38.87277132 -6.03331444 41.05831571 -6.83007812 43.24414062 C-8.29168215 47.24603435 -9.75559806 51.24703817 -11.22827148 55.24487305 C-11.6700901 56.44444893 -11.6700901 56.44444893 -12.12083435 57.66825867 C-12.75195941 59.3421416 -13.41508914 61.00408872 -14.098526 62.65730286 C-15.02953345 65.07674978 -15.2121376 66.74194069 -15.125 69.3125 C-15.08375 70.529375 -15.0425 71.74625 -15 73 C-10.00165008 73.29402058 -6.94937682 73.20219742 -3 70 C0.77368599 65.07572957 2.67987119 59.93453456 4.6796875 54.09765625 C5.18255783 52.6655204 5.18255783 52.6655204 5.69558716 51.20445251 C6.76332842 48.15984056 7.81979812 45.11147808 8.875 42.0625 C11.55430192 34.3646166 14.25032835 26.67306291 17 19 C17.28331177 18.20680359 17.56662354 17.41360718 17.85852051 16.59637451 C18.61904602 14.49298707 19.40166976 12.39967254 20.1953125 10.30859375 C20.62086426 9.17091553 21.04641602 8.0332373 21.48486328 6.86108398 C23.21865341 3.58710937 24.90998984 2.01033554 28 0 C31.62829011 -0.5923739 33.25991849 -0.4674199 36.375 1.5 C38.64986001 4.99978463 38.50871353 7.9852193 38 12 C36.86334211 16.2591691 35.3624609 20.36292083 33.8359375 24.49609375 C33.40624664 25.68421158 32.97655579 26.87232941 32.53384399 28.09645081 C31.62365212 30.60272362 30.70858555 33.10649348 29.78466797 35.60766602 C28.6112287 38.78639839 27.46016155 41.97268214 26.31581688 45.16198635 C25.20942607 48.23604047 24.08436743 51.30323388 22.9609375 54.37109375 C22.55442963 55.50260361 22.14792175 56.63411346 21.72909546 57.7999115 C17.41574494 69.38926474 11.87301512 79.00603404 0.3125 84.3125 C-6.50794704 87.18362957 -14.15433286 88.62325831 -21.35546875 86.2109375 C-24.83033564 84.50284158 -28.01977033 82.48352472 -31 80 C-31.77923828 80.50660156 -31.77923828 80.50660156 -32.57421875 81.0234375 C-39.82155898 85.65852016 -45.23299702 88.06751939 -54 87 C-58.33997108 85.6942993 -61.26678855 83.71488116 -64.5 80.5625 C-68.59509475 70.83664996 -65.48810377 60.64429969 -62.01953125 51.19921875 C-61.60966476 50.03800003 -61.19979828 48.87678131 -60.7775116 47.68037415 C-59.91365143 45.24595409 -59.04000212 42.81498729 -58.15698242 40.38745117 C-56.81246968 36.68741656 -55.50061784 32.97701175 -54.19335938 29.26367188 C-53.34563894 26.88734613 -52.49609162 24.51167115 -51.64453125 22.13671875 C-51.05983818 20.48805061 -51.05983818 20.48805061 -50.46333313 18.80607605 C-44.83196701 3.4159835 -44.83196701 3.4159835 -40 1 C-32.90140845 0.54929577 -32.90140845 0.54929577 -30 2 C-27.95594159 6.08811683 -28.57342606 10.44104572 -29.74145508 14.7097168 C-30.81828482 17.86364544 -31.97169502 20.97868155 -33.15625 24.09375 C-33.57797485 25.23984741 -33.99969971 26.38594482 -34.4342041 27.56677246 C-36.23114723 32.44898599 -38.05811447 37.31981755 -39.88232422 42.19189453 C-41.21323582 45.75957628 -42.5287919 49.3326639 -43.84375 52.90625 C-44.25935181 53.99917358 -44.67495361 55.09209717 -45.10314941 56.21813965 C-47.26107713 62.08771218 -48.50120047 66.74064672 -48 73 C-42.62950001 72.57878431 -39.94528163 71.64624083 -36 68 C-28.22115496 56.69569209 -24.72741936 41.68815685 -20.23535156 28.87402344 C-19.12977363 25.72869707 -18.01440767 22.58696363 -16.8984375 19.4453125 C-16.56605072 18.48585724 -16.23366394 17.52640198 -15.89120483 16.53787231 C-14.09680555 11.49188155 -12.21034855 7.29436234 -9 3 C-8.54625 2.38125 -8.0925 1.7625 -7.625 1.125 C-4.96484985 -0.71664241 -3.14085422 -0.50253668 0 0 Z " fill="#F6F4F3" transform="translate(268,278)"/>
<path d="M0 0 C2.82760655 3.43441592 5.33637886 6.95237142 7.75 10.6875 C14.02521613 20.16412029 21.23995068 28.70945447 29 37 C29.88300781 37.94875 30.76601562 38.8975 31.67578125 39.875 C42.33374924 51.06467463 54.78502464 60.04861652 68 68 C66.515 68.495 66.515 68.495 65 69 C62.43359375 67.59375 62.43359375 67.59375 59.4375 65.5 C58.37917969 64.76523437 57.32085937 64.03046875 56.23046875 63.2734375 C55.16441406 62.52320313 54.09835938 61.77296875 53 61 C52.00613281 60.33226562 51.01226562 59.66453125 49.98828125 58.9765625 C49.08464844 58.36554688 48.18101562 57.75453125 47.25 57.125 C46.43015625 56.57070313 45.6103125 56.01640625 44.765625 55.4453125 C43.89164063 54.72988281 43.89164063 54.72988281 43 54 C43 53.34 43 52.68 43 52 C42.401875 51.71125 41.80375 51.4225 41.1875 51.125 C39 50 39 50 36 48 C36 47.34 36 46.68 36 46 C35.43410156 45.75765625 34.86820313 45.5153125 34.28515625 45.265625 C26.81926087 41.13066756 21.11091758 33.11900626 15.875 26.5 C15.3895874 25.88866211 14.9041748 25.27732422 14.40405273 24.64746094 C11 20.25489642 11 20.25489642 11 18 C10.34 18 9.68 18 9 18 C7.35779345 15.59004706 5.84973401 13.19685209 4.375 10.6875 C3.95476562 9.99720703 3.53453125 9.30691406 3.1015625 8.59570312 C0 3.38447392 0 3.38447392 0 0 Z " fill="#FAE9DF" transform="translate(90,365)"/>
<path d="M0 0 C6.06093474 0.91733066 10.76225505 3.96531769 16 7 C17.23363281 7.7115625 17.23363281 7.7115625 18.4921875 8.4375 C22.60300412 10.89521243 22.60300412 10.89521243 24 12 C24 12.66 24 13.32 24 14 C24.72574219 14.2578125 25.45148438 14.515625 26.19921875 14.78125 C29.12047667 16.05242499 31.30872649 17.54016402 33.8125 19.5 C34.60269531 20.1084375 35.39289063 20.716875 36.20703125 21.34375 C36.79871094 21.8903125 37.39039063 22.436875 38 23 C38 23.66 38 24.32 38 25 C38.5887793 25.26425781 39.17755859 25.52851563 39.78417969 25.80078125 C42.08072584 27.04368944 43.60833166 28.35006481 45.453125 30.1875 C46.071875 30.80367187 46.690625 31.41984375 47.328125 32.0546875 C47.96234375 32.69664062 48.5965625 33.33859375 49.25 34 C50.22453125 34.96292969 50.22453125 34.96292969 51.21875 35.9453125 C51.83234375 36.56148437 52.4459375 37.17765625 53.078125 37.8125 C53.63918945 38.37582031 54.20025391 38.93914062 54.77832031 39.51953125 C56 41 56 41 56 43 C56.66 43 57.32 43 58 43 C63.12563187 48.52967942 68.67462798 55.19620536 72 62 C71.67 62.99 71.34 63.98 71 65 C70.41734375 64.15179688 69.8346875 63.30359375 69.234375 62.4296875 C52.15153231 37.87067208 31.35667499 18.926578 5.33349609 4.13500977 C3.54206285 3.11349841 1.76889886 2.0600544 0 1 C0 0.67 0 0.34 0 0 Z " fill="#F9E9DF" transform="translate(332,112)"/>
<path d="M0 0 C-0.58265625 0.32572998 -1.1653125 0.65145996 -1.765625 0.98706055 C-14.82279532 8.34326706 -26.77076031 16.06845724 -38 26 C-38.57540527 26.49854492 -39.15081055 26.99708984 -39.74365234 27.51074219 C-48.34774491 34.98420822 -55.77446711 43.19917075 -63 52 C-63 44.03097316 -52.97445392 36.76855107 -47.6875 31.4375 C-46.96949219 30.71022705 -46.25148438 29.9829541 -45.51171875 29.23364258 C-44.83109375 28.55712646 -44.15046875 27.88061035 -43.44921875 27.18359375 C-42.83393311 26.57056396 -42.21864746 25.95753418 -41.5847168 25.32592773 C-40 24 -40 24 -38 24 C-38 23.34 -38 22.68 -38 22 C-36.07412421 20.36860063 -34.15673283 18.86276775 -32.125 17.375 C-31.56941406 16.95476562 -31.01382813 16.53453125 -30.44140625 16.1015625 C-26.26235288 13 -26.26235288 13 -24 13 C-24 12.34 -24 11.68 -24 11 C-21.63041318 9.42921729 -19.27216528 7.97880959 -16.8125 6.5625 C-16.13896484 6.16740234 -15.46542969 5.77230469 -14.77148438 5.36523438 C-13.45228133 4.59173093 -12.12958231 3.8241547 -10.80322266 3.06298828 C-9.25426752 2.14988909 -7.75220916 1.15805269 -6.26171875 0.15234375 C-3.5609644 -1.22368826 -2.79336874 -0.85969565 0 0 Z " fill="#F9E8DD" transform="translate(168,113)"/>
<path d="M0 0 C0.66 0 1.32 0 2 0 C0.57284281 2.95998296 -1.02728676 5.74259896 -2.7578125 8.53515625 C-9.97715306 20.34754494 -16.04334308 32.07838987 -21 45 C-21.66481152 46.66740753 -22.33049114 48.33447303 -23 50 C-23.66 50 -24.32 50 -25 50 C-20.71373048 33.01820839 -11.95579685 12.99769636 0 0 Z " fill="#F9ECE3" transform="translate(100,168)"/>
<path d="M0 0 C0 0.66 0 1.32 0 2 C-2.7907207 2.83661862 -5.58248012 3.66942737 -8.375 4.5 C-9.1690625 4.73847656 -9.963125 4.97695312 -10.78125 5.22265625 C-11.92207031 5.56103516 -11.92207031 5.56103516 -13.0859375 5.90625 C-14.1385376 6.22045898 -14.1385376 6.22045898 -15.21240234 6.54101562 C-17 7 -17 7 -19 7 C-19 6.34 -19 5.68 -19 5 C-16.77417611 4.15665671 -14.54503974 3.32521449 -12.3125 2.5 C-11.68666016 2.26152344 -11.06082031 2.02304688 -10.41601562 1.77734375 C-6.81807701 0.4587275 -3.83479747 -0.29329235 0 0 Z " fill="#FAECE3" transform="translate(207,97)"/>
<path d="M0 0 C0.66 0 1.32 0 2 0 C4.31 4.95 6.62 9.9 9 15 C8.01 15.495 8.01 15.495 7 16 C5.82845707 13.71070947 4.66261926 11.41881638 3.5 9.125 C3.16613281 8.47402344 2.83226563 7.82304687 2.48828125 7.15234375 C0 2.2265625 0 2.2265625 0 0 Z " fill="#F9E8DE" transform="translate(81,349)"/>
<path d="M0 0 C0 0.99 0 1.98 0 3 C-2.01171875 4.7890625 -2.01171875 4.7890625 -4.6875 6.625 C-5.55761719 7.23601562 -6.42773438 7.84703125 -7.32421875 8.4765625 C-9.96566896 9.98045386 -12.00854563 10.60113942 -15 11 C-10.22276042 7.01896702 -5.11066313 3.53280791 0 0 Z " fill="#F9EBE5" transform="translate(360,421)"/>
<path d="M0 0 C3.04049801 3.64859761 4.96518762 7.7444533 7 12 C6.01 12 5.02 12 4 12 C2.35 8.37 0.7 4.74 -1 1 C-0.67 0.67 -0.34 0.34 0 0 Z " fill="#F9EAE2" transform="translate(409,183)"/>
<path d="M0 0 C0.33 0.66 0.66 1.32 1 2 C-1.31 4.64 -3.62 7.28 -6 10 C-6.66 9.67 -7.32 9.34 -8 9 C-5.36 6.03 -2.72 3.06 0 0 Z " fill="#F8E8DF" transform="translate(392,390)"/>
<path d="M0 0 C2.15377564 2.62198774 3.40072174 4.64404172 4 8 C3.01 8.495 3.01 8.495 2 9 C0.4375 6.1875 0.4375 6.1875 -1 3 C-0.67 2.01 -0.34 1.02 0 0 Z " fill="#F9EADE" transform="translate(416,196)"/>
</svg>
